<?xml version="1.0" encoding="utf-8"?>
<!-- Generator: Adobe Illustrator 23.0.1, SVG Export Plug-In . SVG Version: 6.00 Build 0)  -->
<svg version="1.1" xmlns="http://www.w3.org/2000/svg" xmlns:xlink="http://www.w3.org/1999/xlink" x="0px" y="0px"
	 viewBox="0 0 85.39 69.39" style="enable-background:new 0 0 85.39 69.39;" xml:space="preserve">
<style type="text/css">
	.st0{fill:#324B6F;}
	.st1{fill:#373640;}
	.st2{fill:#E1D6DA;}
	.st3{fill:#927B6F;}
	.st4{fill:#78636A;}
	.st5{fill:#BAAFB3;}
	.st6{fill:#E2DEDB;}
	.st7{fill:#E9C694;}
	.st8{fill:#D3816E;}
	.st9{fill:#63F333;}
	.st10{fill:#3C4E6F;}
	.st11{fill:#EAEBEA;}
	.st12{fill:#F4F4F3;}
	.st13{fill:#DFDFDE;}
	.st14{fill:#FFFFFF;}
	.st15{clip-path:url(#SVGID_2_);fill:#FFFFFF;}
	.st16{clip-path:url(#SVGID_2_);fill:#EAEBEA;}
	.st17{fill:#FAFAFA;}
	.st18{clip-path:url(#SVGID_4_);fill:#FAFAFA;}
	.st19{clip-path:url(#SVGID_4_);fill:#DFDFDE;}
	.st20{fill:#E4BCA1;}
	.st21{fill:#DA9E77;}
	.st22{fill:#132932;}
	.st23{fill:#3F5864;}
	.st24{fill:#243942;}
	.st25{fill:#04151D;}
	.st26{fill:#CE7C68;}
	.st27{fill:#B36249;}
	.st28{fill:#B2B3B1;}
	.st29{fill:#7F4031;}
	.st30{fill:#A3A4A2;}
	.st31{fill:#AFB0AE;}
	.st32{clip-path:url(#SVGID_6_);fill:#B36249;}
	.st33{clip-path:url(#SVGID_6_);fill:#E4BCA1;}
	.st34{clip-path:url(#SVGID_8_);fill:#FFFFFF;}
	.st35{clip-path:url(#SVGID_8_);fill:#132932;}
	.st36{fill:#E2CA66;}
	.st37{fill:#EAEBEA;stroke:#EAEBEA;stroke-miterlimit:10;}
	.st38{fill:#3C3440;}
	.st39{fill:#BBB1B4;}
	.st40{fill:#F2F2F2;}
	.st41{fill:none;stroke:#BBB1B4;stroke-width:0;stroke-linecap:round;stroke-linejoin:round;}
	.st42{fill:#B5B5B5;}
	.st43{fill:#A8CEF2;}
	.st44{fill:none;stroke:#F2F2F2;stroke-width:3;stroke-linecap:round;stroke-miterlimit:10;}
	.st45{fill:none;}
	.st46{opacity:0.42;fill:#7A7A7A;}
	.st47{fill:#39313D;}
	.st48{clip-path:url(#SVGID_10_);}
	.st49{fill:#EFEFEF;}
	.st50{fill:#CD4F18;}
	.st51{fill:#EB941E;}
	.st52{fill:#48B26D;}
	.st53{fill:none;stroke:#020202;stroke-width:0.25;stroke-linecap:round;stroke-miterlimit:10;}
	.st54{fill:none;stroke:#000000;stroke-width:0.25;stroke-linecap:round;stroke-miterlimit:10;}
	.st55{fill:none;stroke:#000000;stroke-width:0.25;stroke-linecap:round;stroke-linejoin:round;stroke-miterlimit:10;}
	.st56{fill:none;stroke:#020202;stroke-linecap:round;stroke-linejoin:round;stroke-miterlimit:10;}
	.st57{fill:none;stroke:#000000;stroke-linecap:round;stroke-miterlimit:10;}
	.st58{fill:none;stroke:#000000;stroke-linecap:round;stroke-linejoin:round;stroke-miterlimit:10;}
	.st59{clip-path:url(#SVGID_14_);fill:#776266;}
	.st60{clip-path:url(#SVGID_14_);}
	.st61{fill:none;stroke:#EFEFEF;stroke-width:0.5;stroke-miterlimit:10;}
	.st62{clip-path:url(#SVGID_20_);fill:#987F74;}
	.st63{clip-path:url(#SVGID_20_);}
	.st64{fill:#E2DDDB;}
	.st65{fill:#E4D8DC;}
	.st66{fill:#E0DCD9;}
	.st67{clip-path:url(#SVGID_26_);fill:#987F74;}
	.st68{clip-path:url(#SVGID_26_);}
	.st69{fill:#7B6668;}
	.st70{fill:#E2D8DB;}
	.st71{fill:#423D3B;}
	.st72{fill:#987F74;}
	.st73{fill:#796568;}
	.st74{fill:#CBCBCB;}
	.st75{fill:#878787;}
	.st76{fill:none;stroke:#878787;stroke-width:2;stroke-linecap:round;stroke-miterlimit:10;}
	.st77{clip-path:url(#SVGID_40_);}
	.st78{fill:#E1DDDA;}
	.st79{clip-path:url(#SVGID_46_);}
	.st80{clip-path:url(#SVGID_52_);}
	.st81{clip-path:url(#SVGID_58_);}
	.st82{clip-path:url(#SVGID_64_);}
	.st83{fill:#CECECE;stroke:#B7B7B7;stroke-width:2;stroke-linecap:round;stroke-miterlimit:10;}
	.st84{fill:none;stroke:#F2F2F2;stroke-width:0.5;stroke-linecap:round;stroke-miterlimit:10;}
	.st85{fill:none;stroke:#E1D7DA;stroke-width:3;stroke-linecap:round;stroke-miterlimit:10;}
	
		.st86{fill:none;stroke:#BBB0B4;stroke-width:5;stroke-linecap:round;stroke-linejoin:round;stroke-miterlimit:10;stroke-dasharray:30,15;}
	.st87{fill:#A9974D;}
	.st88{fill:#CFCFCF;}
	.st89{fill:none;stroke:#020202;stroke-width:0.75;stroke-linecap:round;stroke-linejoin:round;stroke-miterlimit:10;}
	.st90{fill:none;stroke:#000000;stroke-width:0.75;stroke-linecap:round;stroke-miterlimit:10;}
	.st91{fill:none;stroke:#000000;stroke-width:0.75;stroke-linecap:round;stroke-linejoin:round;stroke-miterlimit:10;}
	.st92{fill:#65BE2D;}
	.st93{opacity:0.65;fill:#4C8E22;}
	.st94{fill:none;stroke:#65BE2D;stroke-width:4;stroke-linecap:round;stroke-linejoin:round;stroke-miterlimit:10;}
	.st95{fill:#E3D9DD;stroke:#FFFFFF;stroke-miterlimit:10;}
	.st96{fill:none;stroke:#E3D9DD;stroke-miterlimit:10;}
	.st97{fill:#E3D9DD;}
</style>
<g id="color">
</g>
<g id="BG">
</g>
<g id="svg_source">
</g>
<g id="trashAnim">
</g>
<g id="PC_icon">
</g>
<g id="windowSample">
</g>
<g id="圖層_3">
</g>
<g id="Contact_Page">
</g>
<g id="Work_Page">
</g>
<g id="About_Page">
	<g id="selfPhoto">
	</g>
</g>
<g id="Home_Page">
	<g id="windows">
	</g>
	<g id="bio">
	</g>
</g>
<g id="Navbar">
	<g>
		<g>
			<polygon class="st42" points="42.71,49.66 31.96,68.28 53.47,68.28 			"/>
			<path class="st40" d="M83.21,61.39H2.17c-1.2,0-2.17-0.97-2.17-2.17V5.36C0,2.41,2.41,0,5.36,0h74.67c2.95,0,5.36,2.41,5.36,5.36
				v53.85C85.39,60.41,84.42,61.39,83.21,61.39z"/>
			<path class="st38" d="M85.39,54.77H0V3.18C0,1.43,1.43,0,3.18,0h79.02c1.75,0,3.18,1.43,3.18,3.18V54.77z"/>
			<path class="st43" d="M81.23,53.17H4.16C2.97,53.17,2,52.2,2,51.01V3.95c0-1.19,0.97-2.16,2.16-2.16h77.07
				c1.19,0,2.16,0.97,2.16,2.16v47.06C83.39,52.2,82.42,53.17,81.23,53.17z"/>
			<g>
				<line class="st84" x1="5.24" y1="7.17" x2="35.31" y2="7.17"/>
				<line class="st84" x1="37.73" y1="7.24" x2="54.97" y2="7.24"/>
				<line class="st84" x1="8" y1="9.79" x2="47.25" y2="9.79"/>
				<line class="st84" x1="60.9" y1="9.86" x2="78.15" y2="9.86"/>
				<line class="st84" x1="6.07" y1="12.55" x2="21.73" y2="12.62"/>
				<line class="st84" x1="38.56" y1="12.62" x2="55.8" y2="12.62"/>
				<line class="st84" x1="31.25" y1="16" x2="36.14" y2="16"/>
				<line class="st84" x1="38.56" y1="16.07" x2="73.04" y2="16.07"/>
				<line class="st84" x1="6.07" y1="19.45" x2="36.14" y2="19.45"/>
				<line class="st84" x1="38.56" y1="19.52" x2="55.8" y2="19.52"/>
				<line class="st84" x1="6.07" y1="22.9" x2="21.73" y2="22.97"/>
				<line class="st84" x1="38.56" y1="22.97" x2="61.46" y2="22.97"/>
				<line class="st84" x1="6.07" y1="26.35" x2="36.14" y2="26.35"/>
				<line class="st84" x1="49.59" y1="26.42" x2="66.84" y2="26.42"/>
				<line class="st84" x1="6.07" y1="29.8" x2="36.14" y2="29.8"/>
				<line class="st84" x1="38.56" y1="29.87" x2="55.8" y2="29.87"/>
				<line class="st84" x1="17.38" y1="33.25" x2="47.45" y2="33.25"/>
				<line class="st84" x1="49.87" y1="33.31" x2="67.11" y2="33.31"/>
				<line class="st84" x1="6.07" y1="36.69" x2="36.14" y2="36.69"/>
				<line class="st84" x1="38.56" y1="36.76" x2="55.8" y2="36.76"/>
				<line class="st84" x1="6.07" y1="40.14" x2="36.14" y2="40.14"/>
				<line class="st84" x1="55.8" y1="40.35" x2="73.04" y2="40.35"/>
				<line class="st84" x1="6.07" y1="43.59" x2="36.14" y2="43.59"/>
				<line class="st84" x1="38.56" y1="43.66" x2="55.8" y2="43.66"/>
				<line class="st84" x1="11.31" y1="47.04" x2="41.38" y2="47.04"/>
				<line class="st84" x1="43.8" y1="47.11" x2="61.04" y2="47.11"/>
				<line class="st45" x1="82.62" y1="7.17" x2="82.56" y2="7.24"/>
			</g>
			<path class="st40" d="M54.14,69.39h-22.9c-0.49,0-0.9-0.4-0.9-0.9v0c0-0.49,0.4-0.9,0.9-0.9h22.9c0.49,0,0.9,0.4,0.9,0.9v0
				C55.04,68.98,54.64,69.39,54.14,69.39z"/>
			<path class="st46" d="M2.19,51.87L78.08,1.79L3.64,1.83c-0.86,0-1.57,0.68-1.57,1.51v48.52H2.19"/>
		</g>
	</g>
	<g id="Home_button">
	</g>
</g>
<g id="Experience">
	<g id="file_anim">
	</g>
</g>
<g id="loading_scene">
</g>
<g id="note">
</g>
</svg>
